<svg xmlns="http://www.w3.org/2000/svg" width="24" height="24" viewBox="0 0 24 24"><g fill="none" stroke="#40899C" stroke-linecap="round" stroke-linejoin="round" stroke-width="1.5" color="#40899C"><path d="M2.5 12c0-4.478 0-6.718 1.391-8.109S7.521 2.5 12 2.5c4.478 0 6.718 0 8.109 1.391S21.5 7.521 21.5 12c0 4.478 0 6.718-1.391 8.109S16.479 21.5 12 21.5c-4.478 0-6.718 0-8.109-1.391S2.5 16.479 2.5 12"/><path d="M15.5 9.172c-1.601-1.563-4.198-1.563-5.799 0a3.93 3.93 0 0 0 0 5.656c1.601 1.563 4.198 1.563 5.799 0"/></g></svg>